# xmcd CD database file
#
# Track frame offsets:
#	150
#	44819
#	76168
#	101180
#	129564
#	163534
#	192571
#	223548
#	249796
#	270195
#	298010
#	321780
#
# Disc length: 4715 seconds
#
# Revision: 0
# Processed by: cddbd v1.5.2PL0 Copyright (c) Steve Scherf et al.
# Submitted via: CDex 1.51
#
DISCID=ab12690c
DTITLE=Oliver Nelson - 8 Classic Albums CD2
DYEAR=1960
DGENRE=Jazz
TTITLE0=Trane Whistle
TTITLE1=Doxy 
TTITLE2=In Time
TTITLE3=Lou's Good Dues
TTITLE4=All The Way
TTITLE5=Groove
TTITLE6=Main Stem
TTITLE7=J and B
TTITLE8=Ho!
TTITLE9=Latino 
TTITLE10=Tipsy
TTITLE11=Tangerine
EXTD=YEAR: 1960
EXTT0=
EXTT1=
EXTT2=
EXTT3=
EXTT4=
EXTT5=
EXTT6=
EXTT7=
EXTT8=
EXTT9=
EXTT10=
EXTT11=
PLAYORDER=
